# AST/ASF file generated using VICON BodyLanguage
# -----------------------------------------------
:version 1.10
:name VICON
:units
  mass 1.0
  length 0.45
  angle deg
:documentation
   .ast/.asf automatically generated from VICON data using
   VICON BodyBuilder and BodyLanguage model FoxedUp or BRILLIANT.MOD
:root
   order TX TY TZ RX RY RZ
   axis XYZ
   position 0 0 0  
   orientation 0 0 0 
:bonedata
  begin
     id 1 
     name lhipjoint
     direction 0.734343 -0.627749 0.258209 
     length 2.5437 
     axis 0 0 0  XYZ
  end
  begin
     id 2 
     name lfemur
     direction 0.34202 -0.939693 0  
     length 6.7391  
     axis 0 0 20  XYZ
    dof rx ry rz
    limits (-160.0 20.0)
           (-70.0 70.0)
           (-60.0 70.0)
  end
  begin
     id 3 
     name ltibia
     direction 0.34202 -0.939693 0   
     length 7.21536   
     axis 0 0 20   XYZ
    dof rx
    limits (-10.0 170.0)
  end
  begin
     id 4 
     name lfoot
     direction 0.0489572 -0.134509 0.989702   
     length 1.61313   
     axis -90 7.62852e-016 20   XYZ
    dof rx rz
    limits (-45.0 90.0)
           (-70.0 20.0)
  end
  begin
     id 5 
     name ltoes
     direction 1.53451e-011 -4.21692e-011 1   
     length 0.823104   
     axis -90 7.62852e-016 20   XYZ
    dof rx
    limits (-90.0 20.0)
  end
  begin
     id 6 
     name rhipjoint
     direction -0.746398 -0.615468 0.253157   
     length 2.59446  
     axis 0 0 0  XYZ 
  end
  begin
     id 7 
     name rfemur
     direction -0.34202 -0.939693 0   
     length 6.7075   
     axis 0 0 -20   XYZ
    dof rx ry rz
    limits (-160.0 20.0)
           (-70.0 70.0)
           (-70.0 60.0)
  end
  begin
     id 8 
     name rtibia
     direction -0.34202 -0.939693 0   
     length 7.27262   
     axis 0 0 -20   XYZ
    dof rx
    limits (-10.0 170.0)
 end
 begin
     id 9 
     name rfoot
     direction -0.0455203 -0.125066 0.991104   
     length 1.91095  
     axis -90 -7.62852e-016 -20   XYZ
    dof rx rz
    limits (-45.0 90.0)
           (-20.0 70.0)
  end
  begin
     id 10 
     name rtoes
     direction -1.53601e-011 -4.21913e-011 1   
     length 0.969037   
     axis -90 -7.62852e-016 -20   XYZ
    dof rx
    limits (-90.0 20.0)
  end
  begin
     id 11 
     name lowerback
     direction 0.0181546 0.999122 -0.0377542   
     length 1.99916   
     axis 0 0 0   XYZ
    dof rx ry rz
    limits (-20.0 45.0)
           (-30.0 30.0)
           (-30.0 30.0)
  end
  begin
     id 12 
     name upperback
     direction 0.0203486 0.99589 0.0882534   
     length 1.951   
     axis 0 0 0   XYZ
    dof rx ry rz
    limits (-20.0 45.0)
           (-30.0 30.0)
           (-30.0 30.0)
  end
  begin
     id 13 
     name thorax
     direction 0.0131685 0.994241 0.106355   
     length 1.97461   
     axis 0 0 0   XYZ
    dof rx ry rz
    limits (-20.0 45.0)
           (-30.0 30.0)
           (-30.0 30.0)
  end
  begin
     id 14 
     name lowerneck
     direction -0.0281395 0.999325 0.023617   
     length 1.7959   
     axis 0 0 0   XYZ
    dof rx ry rz
    limits (-20.0 45.0)
           (-30.0 30.0)
           (-30.0 30.0)
  end
  begin
     id 15 
     name upperneck
     direction 0.0288721 0.991984 -0.123019   
     length 1.79917   
     axis 0 0 0   XYZ
    dof rx ry rz
    limits (-20.0 45.0)
           (-30.0 30.0)
           (-30.0 30.0)
  end
  begin
     id 16
     name head
     direction 0.0133797 0.998944 -0.0439492  
     length 1.80902  
     axis 0 0 0   XYZ
    dof rx ry rz
    limits (-20.0 45.0)
           (-30.0 30.0)
           (-30.0 30.0)
  end
  begin
     id 17 
     name lclavicle
     direction 0.919195 0.377107 0.113449  
     length 3.17815  
     axis 0 0 0   XYZ
    dof ry rz
    limits (-20.0 10.0)
           (0.0 20.0)
  end
  begin
     id 18 
     name lhumerus
     direction 1 -4.48959e-011 2.13129e-027   
     length 4.84137   
     axis 180 -30 -90   XYZ
    dof rx ry rz
    limits (-60.0 90.0)
           (-90.0 90.0)
           (-90.0 90.0)
  end
  begin
     id 19
     name lradius
     direction 1 -4.48957e-011 -6.30627e-028   
     length 3.2452   
     axis 180 -30 -90   XYZ
    dof rx
    limits (-10.0 170.0)
  end
  begin
     id 20
     name lwrist
     direction 1 -4.4901e-011 9.13299e-027   
     length 1.6226   
     axis -6.84618e-015 90 90   XYZ
    dof ry
    limits (-180.0 0.0)
 end
  begin
     id 21 
     name lhand
     direction 1 -4.48816e-011 1.82293e-026   
     length 0.521221   
     axis -1.16502e-014 90 90   XYZ
    dof rx rz
    limits (-90.0 90.0)
           (-45.0 45.0)
  end
  begin
     id 22 
     name lfingers
     direction 1 -4.49108e-011 3.65687e-026   
     length 0.420221   
     axis -2.33008e-014 90 90   XYZ
    dof rx
    limits (0.0 90.0)
  end
  begin
     id 23
     name lthumb
     direction 0.707107 -6.34943e-011 0.707107   
     length 0.603356   
     axis -90 45 5.69224e-014   XYZ
    dof rx rz
    limits (-45.0 45.0)
           (-45.0 45.0)
  end
  begin
     id 24 
     name rclavicle
     direction -0.90847 0.38596 0.160368   
     length 3.12973  
     axis 0 0 0   XYZ 
    dof ry rz
    limits (-10.0 20.0)
           (-20.0 0.0)
  end
  begin
     id 25 
     name rhumerus
     direction -1 -4.48974e-011 4.47268e-028  
     length 4.72284   
     axis 180 30 90   XYZ
    dof rx ry rz
    limits (-90.0 60.0)
           (-90.0 90.0)
           (-90.0 90.0)
  end
  begin
     id 26 
     name rradius
     direction -1 -4.48969e-011 3.43203e-027   
     length 3.23459   
     axis 180 30 90   XYZ
    dof rx
    limits (-10.0 170.0)
  end
  begin
     id 27 
     name rwrist
     direction -1 -4.48969e-011 9.12911e-027   
     length 1.6173   
     axis -6.84618e-015 -90 -90   XYZ
    dof ry
    limits (-180.0 0.0)
  end
  begin
     id 28
     name rhand
     direction -1 -4.49194e-011 1.83006e-026   
     length 0.307416   
     axis -1.16502e-014 -90 -90   XYZ
    dof rx rz
    limits (-90.0 90.0)
           (-45.0 45.0)
  end
  begin
     id 29
     name rfingers
     direction -1 -4.48423e-011 3.63103e-026   
     length 0.247847   
     axis -2.33008e-014 -90 -90   XYZ
    dof rx
    limits (0.0 90.0)
  end
  begin
     id 30
     name rthumb
     direction -0.707107 -6.34802e-011 0.707107   
     length 0.35586   
     axis -90 -45 -5.69224e-014   XYZ
    dof rx rz
    limits (-45.0 45.0)
           (-45.0 45.0)
  end
:hierarchy
  begin
    root lhipjoint rhipjoint lowerback
    lhipjoint lfemur
    lfemur ltibia
    ltibia lfoot
    lfoot ltoes
    rhipjoint rfemur
    rfemur rtibia
    rtibia rfoot
    rfoot rtoes
    lowerback upperback
    upperback thorax
    thorax lowerneck lclavicle rclavicle
    lowerneck upperneck
    upperneck head
    lclavicle lhumerus
    lhumerus lradius
    lradius lwrist
    lwrist lhand lthumb
    lhand lfingers
    rclavicle rhumerus
    rhumerus rradius
    rradius rwrist
    rwrist rhand rthumb
    rhand rfingers
  end

#!OML:ASF H:\Terrain\Patient Classification 1\Animal1\Tuesday\Animal1.ASF
:FULLY-SPECIFIED
:DEGREES
174
root 9.7394 16.4875 -11.8273 7.93988 -8.15832 0.824059
lowerback 4.926 -0.232215 -4.13088
upperback 6.0089 -0.330645 -3.8328
thorax 3.45726 -0.245756 -1.64439
lowerneck -9.51938 1.64042 -5.56113
upperneck 1.14591 2.67547 3.82038
head 1.89745 1.41031 2.33112
rclavicle 1.23246e-014 5.56597e-014
rhumerus -10.0856 35.7919 -87.7474
rradius 25.6958
rwrist -25.1523
rhand -21.5432 22.5397
rfingers 7.12502
rthumb 4.84987 -7.38483
lclavicle 1.23246e-014 5.56597e-014
lhumerus -7.73717 -29.8702 82.0269
lradius 29.2558
lwrist -23.6882
lhand 1.34781 43.4741
lfingers 7.12502
lthumb 26.8807 71.5829
rfemur -33.6705 -8.95834 24.0506
rtibia 49.3772
rfoot -6.36551 -23.9271
rtoes 8.72942
lfemur -23.1658 -2.48627 -21.1824
ltibia 25.2462
lfoot -9.76735 20.0266
ltoes 0.46035
175
root 9.7453 16.464 -11.78 8.15816 -8.1535 0.76112
lowerback 4.92649 -0.25745 -4.06166
upperback 5.90014 -0.369573 -3.76982
thorax 3.34204 -0.261948 -1.61507
lowerneck -9.5122 1.67607 -5.73203
upperneck 1.24477 2.74068 3.82327
head 1.92413 1.44076 2.36787
rclavicle 1.51076e-014 -1.27222e-014
rhumerus -10.1122 35.9307 -87.8357
rradius 25.5317
rwrist -25.382
rhand -21.5747 22.5871
rfingers 7.12502
rthumb 4.81945 -7.33812
lclavicle 1.51076e-014 -1.27222e-014
lhumerus -7.87007 -29.8954 82.2291
lradius 29.3805
lwrist -23.5109
lhand 1.13521 43.7617
lfingers 7.12502
lthumb 26.6773 71.9016
rfemur -34.0274 -8.72634 24.3862
rtibia 47.9345
rfoot -1.43492 -25.1659
rtoes -6.71837
lfemur -23.4107 -2.62656 -21.1455
ltibia 25.5426
lfoot -10.1388 20.3034
ltoes 1.17447
176
root 9.74643 16.4946 -11.7296 8.33259 -8.18558 0.513405
lowerback 4.88826 -0.21451 -3.82681
upperback 5.86445 -0.30874 -3.65084
thorax 3.32325 -0.224888 -1.62349
lowerneck -9.58845 1.69469 -5.76107
upperneck 1.37176 2.77325 3.77305
head 1.97846 1.45464 2.36207
rclavicle 1.74931e-014 2.54444e-014
rhumerus -10.1175 35.9999 -87.8322
rradius 25.4694
rwrist -25.4382
rhand -21.1479 21.1856
rfingers 7.12502
rthumb 5.23154 -8.72982
lclavicle 1.74931e-014 2.54444e-014
lhumerus -7.9688 -29.8792 82.3958
lradius 29.7158
lwrist -23.4186
lhand 1.0642 43.7448
lfingers 7.12502
lthumb 26.6093 71.8951
rfemur -34.0806 -7.54228 24.2116
rtibia 46.5524
rfoot -11.089 -23.9836
rtoes 18.245
lfemur -23.4135 -2.63843 -20.9042
ltibia 25.609
lfoot -10.5318 20.4636
ltoes 1.66436
177
root 9.74885 16.5027 -11.677 8.71919 -8.10957 -0.373653
lowerback 4.71148 -0.172479 -2.86302
upperback 5.84348 -0.227921 -3.35689
thorax 3.39132 -0.154698 -1.85932
lowerneck -9.68321 1.68064 -5.73624
upperneck 1.36957 2.7652 3.5633
head 1.99693 1.44519 2.28913
rclavicle -1.70955e-014 1.11319e-014
rhumerus -10.0324 36.0487 -87.7088
rradius 25.3779
rwrist -25.3898
rhand -20.3042 19.741
rfingers 7.12502
rthumb 6.04615 -10.1527
lclavicle -1.70955e-014 1.11319e-014
lhumerus -8.11131 -30.2292 82.525
lradius 30.2841
lwrist -22.9575
lhand 1.2569 43.9024
lfingers 7.12502
lthumb 26.7937 72.0245
rfemur -34.2719 -6.72891 25.1087
rtibia 44.9008
rfoot -11.0415 -24.8412
rtoes 16.9091
lfemur -23.5883 -2.58735 -19.9606
ltibia 25.6416
lfoot -10.691 20.5407
ltoes 1.72447
178
root 9.75662 16.4994 -11.6208 8.56921 -8.12183 0.199026
lowerback 4.81684 -0.140133 -3.27102
upperback 5.89031 -0.195647 -3.44725
thorax 3.38515 -0.152316 -1.72553
lowerneck -9.66579 1.69712 -5.86335
upperneck 1.32695 2.80675 3.43186
head 1.97729 1.46136 2.26885
rclavicle -6.75868e-015 -9.54166e-015
rhumerus -9.92859 35.457 -87.6555
rradius 25.1096
rwrist -24.8461
rhand -19.7436 19.3392
rfingers 7.12502
rthumb 6.58732 -10.5383
lclavicle -6.75868e-015 -9.54166e-015
lhumerus -8.18188 -30.6029 82.7345
lradius 30.4084
lwrist -22.5481
lhand 1.48962 43.9312
lfingers 7.12502
lthumb 27.0164 72.019
rfemur -34.1688 -6.24529 24.3821
rtibia 43.2713
rfoot -9.81774 -26.1111
rtoes 12.7029
lfemur -23.1489 -2.81899 -20.6395
ltibia 25.4455
lfoot -11.041 20.6192
ltoes 2.83719
179
root 9.76221 16.5043 -11.5566 8.50622 -8.11593 0.613225
lowerback 4.75906 -0.125294 -3.49951
upperback 5.90585 -0.175314 -3.51111
thorax 3.43597 -0.149926 -1.66506
lowerneck -9.61308 1.80015 -5.99851
upperneck 1.33341 2.95509 3.47815
head 1.96054 1.53543 2.31393
rclavicle 1.59028e-015 -1.59028e-015
rhumerus -9.85855 34.5192 -87.7436
rradius 24.7902
rwrist -24.1237
rhand -19.7643 19.3787
rfingers 7.12502
rthumb 6.56732 -10.4994
lclavicle 1.59028e-015 -1.59028e-015
lhumerus -8.17435 -30.6163 82.9928
lradius 30.1459
lwrist -22.6193
lhand 1.39088 43.8896
lfingers 7.12502
lthumb 26.9219 71.9921
rfemur -33.8426 -5.57148 23.6793
rtibia 41.3543
rfoot -10.3785 -26.4776
rtoes 14.0723
lfemur -22.8391 -2.94479 -21.1513
ltibia 25.4655
lfoot -11.591 20.5305
ltoes 4.29937
180
root 9.76404 16.5122 -11.496 8.6587 -8.08747 0.402598
lowerback 4.70059 -0.0123614 -3.05045
upperback 5.82159 -0.0166514 -3.47202
thorax 3.37842 -0.0534738 -1.87728
lowerneck -9.46153 1.85709 -5.70942
upperneck 1.29864 2.99703 3.29008
head 1.92316 1.55243 2.19567
rclavicle -1.70955e-014 -3.26007e-014
rhumerus -10.003 33.7234 -87.9312
rradius 24.5365
rwrist -23.8163
rhand -20.5266 20.0543
rfingers 7.12502
rthumb 5.83145 -9.84542
lclavicle -1.70955e-014 -3.26007e-014
lhumerus -8.37949 -31.1269 83.2375
lradius 30.2123
lwrist -22.3885
lhand 1.14264 44.1056
lfingers 7.12502
lthumb 26.6844 72.2445
rfemur -33.5973 -4.51279 23.5671
rtibia 39.3756
rfoot -10.9379 -26.9569
rtoes 15.6253
lfemur -22.6434 -2.99216 -20.9583
ltibia 25.2983
lfoot -11.7962 20.575
ltoes 5.12822
181
root 9.76446 16.519 -11.4394 8.84016 -7.98129 0.0787227
lowerback 4.67995 0.163322 -2.46118
upperback 5.69182 0.224145 -3.3988
thorax 3.25613 0.0884945 -2.13398
lowerneck -9.20943 1.82422 -5.1817
upperneck 1.36986 2.89593 2.87232
head 1.9136 1.49134 1.95323
rclavicle -2.34566e-014 -4.69132e-014
rhumerus -10.3208 33.0425 -88.0769
rradius 24.3196
rwrist -23.8132
rhand -21.585 21.3641
rfingers 7.12502
rthumb 4.80952 -8.56126
lclavicle -2.34566e-014 -4.69132e-014
lhumerus -8.74866 -32.0331 83.5608
lradius 30.4897
lwrist -21.8502
lhand 0.873309 44.2294
lfingers 7.12502
lthumb 26.4266 72.4073
rfemur -33.3712 -3.2652 23.4902
rtibia 37.3348
rfoot -11.7081 -27.9985
rtoes 16.7013
lfemur -22.4735 -3.14771 -20.6162
ltibia 25.0535
lfoot -11.7792 20.74
ltoes 5.67988
182
root 9.76438 16.5282 -11.3795 8.90323 -7.80213 0.123648
lowerback 4.53716 0.236384 -2.32197
upperback 5.65139 0.327323 -3.27105
thorax 3.29485 0.142619 -2.08071
lowerneck -8.88389 1.83746 -4.9998
upperneck 1.33871 2.8922 2.48613
head 1.84915 1.47847 1.78567
rclavicle 1.51076e-014 1.59028e-015
rhumerus -10.4095 32.5268 -87.9519
rradius 24.1169
rwrist -23.875
rhand -21.6267 21.7755
rfingers 7.12502
rthumb 4.76921 -8.1508
lclavicle 1.51076e-014 1.59028e-015
lhumerus -9.02971 -32.6577 84.0154
lradius 30.5543
lwrist -21.4764
lhand 0.513906 44.0986
lfingers 7.12502
lthumb 26.0825 72.3277
rfemur -33.0873 -2.04975 22.9425
rtibia 35.3224
rfoot -12.4186 -29.0576
rtoes 17.0784
lfemur -22.143 -3.30724 -20.6935
ltibia 24.6757
lfoot -11.7147 20.7564
ltoes 5.73519
183
root 9.765 16.5404 -11.3172 8.90324 -7.63112 0.492575
lowerback 4.53732 0.231211 -2.42581
upperback 5.56942 0.314216 -3.20625
thorax 3.20787 0.131548 -1.95453
lowerneck -8.73885 1.87826 -5.27769
upperneck 1.37789 2.97015 2.44156
head 1.83033 1.51296 1.82115
rclavicle -1.59028e-015 -3.57812e-014
rhumerus -10.4181 31.9227 -87.826
rradius 23.8776
rwrist -23.6369
rhand -21.0349 21.4747
rfingers 7.12502
rthumb 5.3407 -8.43801
lclavicle -1.59028e-015 -3.57812e-014
lhumerus -9.37153 -33.1081 84.466
lradius 30.4891
lwrist -21.212
lhand 0.355846 43.4758
lfingers 7.12502
lthumb 25.9312 71.7272
rfemur -32.8284 -0.849679 21.9716
rtibia 33.3873
rfoot -12.8106 -29.4854
rtoes 18.4801
lfemur -21.6853 -3.39672 -21.1543
ltibia 24.1552
lfoot -11.6175 20.6945
ltoes 4.87981
184
root 9.76459 16.551 -11.252 8.79084 -7.51695 0.901299
lowerback 4.52938 0.24021 -2.57823
upperback 5.60416 0.324146 -3.16237
thorax 3.24799 0.12989 -1.82414
lowerneck -8.68272 1.97111 -5.44634
upperneck 1.39915 3.11196 2.3523
head 1.82018 1.57952 1.82639
rclavicle 9.54166e-015 2.38542e-015
rhumerus -10.3188 31.3961 -87.6765
rradius 23.6422
rwrist -23.1714
rhand -21.1603 21.7831
rfingers 7.12502
rthumb 5.21962 -8.13263
lclavicle 9.54166e-015 2.38542e-015
lhumerus -9.53409 -33.6635 84.7512
lradius 30.4025
lwrist -20.7561
lhand 0.224168 42.6977
lfingers 7.12502
lthumb 25.8051 70.9674
rfemur -32.4796 0.351485 20.9072
rtibia 31.5642
rfoot -13.1505 -29.77
rtoes 20.2959
lfemur -21.0661 -3.40954 -21.6906
ltibia 23.5411
lfoot -10.9013 20.903
ltoes 1.73237
185
root 9.76073 16.5592 -11.1855 8.66189 -7.35999 0.933781
lowerback 4.56079 0.243477 -2.37086
upperback 5.65727 0.33064 -3.01981
thorax 3.285 0.137583 -1.79312
lowerneck -8.42475 2.09265 -5.28801
upperneck 1.17946 3.26022 1.88958
head 1.70175 1.64432 1.64243
rclavicle 1.23246e-014 7.15625e-015
rhumerus -10.2376 30.8499 -87.5644
rradius 23.4448
rwrist -22.7104
rhand -21.4616 22.0449
rfingers 7.12502
rthumb 4.92865 -7.87782
lclavicle 1.23246e-014 7.15625e-015
lhumerus -9.76111 -34.4674 85.0449
lradius 30.4257
lwrist -20.1676
lhand -0.0778548 42.6304
lfingers 7.12502
lthumb 25.5158 70.9418
rfemur -32.0094 1.91494 20.1384
rtibia 29.8506
rfoot -14.372 -30.8139
rtoes 22.697
lfemur -20.3637 -3.41618 -21.7921
ltibia 22.8657
lfoot -10.0705 21.1061
ltoes -1.47588
186
root 9.75627 16.5678 -11.1212 8.76963 -7.12193 0.869778
lowerback 4.33908 0.228768 -2.04529
upperback 5.67313 0.3237 -2.82363
thorax 3.42462 0.141761 -1.77181
lowerneck -8.09984 2.13612 -5.27815
upperneck 0.838552 3.31194 1.46769
head 1.53526 1.6639 1.49228
rclavicle -1.66979e-014 -2.38542e-014
rhumerus -10.1639 30.3275 -87.3844
rradius 23.3858
rwrist -22.4852
rhand -21.3923 21.8532
rfingers 7.12502
rthumb 4.99556 -8.06793
lclavicle -1.66979e-014 -2.38542e-014
lhumerus -10 -35.2457 85.3946
lradius 30.5605
lwrist -19.7035
lhand -0.179645 42.9838
lfingers 7.12502
lthumb 25.4183 71.3092
rfemur -31.7767 3.7506 19.3284
rtibia 28.1826
rfoot -16.119 -31.8033
rtoes 25.8583
lfemur -19.9163 -3.51782 -21.7364
ltibia 22.1928
lfoot -9.72321 21.0743
ltoes -2.6966
